{"glyphs":{"0":{"ha":736,"x_min":40,"x_max":694,"o":"m 594 957 q 694 697 694 863 l 694 344 q 594 85 694 178 q 510 29 558 49 q 403 3 461 10 q 399 2 400 3 q 396 1 399 1 q 340 1 368 -1 q 338 2 339 1 q 333 3 336 3 q 226 29 275 10 q 142 85 178 49 q 43 344 40 179 l 43 697 q 142 957 40 863 q 226 1013 178 993 q 333 1039 275 1032 q 338 1040 336 1039 q 340 1040 339 1040 q 396 1040 368 1043 q 399 1040 399 1040 q 403 1039 400 1039 q 510 1013 461 1032 q 594 957 558 993 m 556 697 q 530 827 557 779 q 458 899 503 875 q 368 921 415 921 q 278 899 321 921 q 206 827 233 875 q 181 697 179 779 l 181 344 q 206 215 179 263 q 278 143 233 167 q 368 121 321 121 q 458 143 415 121 q 530 215 503 167 q 556 344 557 263 l 556 697 z "},"1":{"ha":325,"x_min":42,"x_max":283,"o":"m 283 975 l 283 0 l 144 0 l 144 857 l 42 857 l 42 938 q 115 967 85 938 q 144 1042 144 997 l 218 1042 q 265 1022 246 1042 q 283 975 283 1003 z "},"2":{"ha":804,"x_min":42,"x_max":763,"o":"m 763 138 l 763 0 l 42 0 l 42 138 l 42 151 q 142 413 42 317 q 253 484 189 457 q 401 514 318 511 l 558 524 q 606 547 586 524 q 625 597 625 569 l 625 703 q 599 815 625 772 q 538 882 574 858 q 467 914 503 906 q 414 924 432 922 q 404 924 408 924 q 394 924 400 925 q 310 908 349 921 q 242 869 271 896 q 197 799 213 842 q 181 693 181 757 l 181 658 l 107 658 q 62 677 81 658 q 43 722 43 696 l 43 725 l 43 728 q 142 954 54 871 q 253 1019 189 999 q 401 1042 318 1039 l 404 1042 q 552 1019 488 1039 q 664 954 617 999 q 738 847 713 907 q 763 703 763 786 l 763 589 q 749 520 763 553 q 711 463 735 488 q 656 422 688 438 q 589 407 625 407 l 403 397 q 315 381 356 394 q 244 338 275 367 q 197 263 214 308 q 181 151 181 217 l 181 138 l 763 138 z "},"3":{"ha":794,"x_min":42,"x_max":756,"o":"m 689 467 q 738 375 722 425 q 750 274 753 325 q 726 174 747 222 q 665 89 704 126 q 664 88 664 88 q 650 76 657 81 q 636 65 643 71 q 533 18 592 33 q 404 0 475 3 l 401 0 q 253 23 318 3 q 142 88 189 43 q 42 347 42 181 l 42 368 l 179 368 l 179 347 q 197 239 179 282 q 244 169 214 196 q 315 131 274 143 q 403 117 356 119 q 460 124 433 119 q 513 140 488 129 q 586 201 561 161 q 613 287 611 242 q 591 374 614 332 q 521 440 568 417 q 454 459 494 453 q 381 468 414 465 l 381 529 q 397 570 382 553 q 436 590 413 588 l 440 590 q 490 601 467 594 q 531 618 514 607 q 592 681 572 642 q 611 761 613 719 q 588 841 610 803 q 524 901 567 879 l 522 901 q 426 922 478 925 q 358 913 390 919 q 298 890 325 906 q 250 851 271 875 q 218 793 229 828 l 171 793 q 124 812 143 793 q 106 857 106 831 q 114 890 106 875 q 115 892 115 890 q 138 924 126 908 q 165 954 150 940 q 278 1019 214 999 q 426 1042 343 1039 q 461 1041 444 1043 q 496 1036 478 1039 q 566 1018 533 1029 q 626 988 599 1007 q 646 974 638 981 q 664 958 654 967 q 689 931 678 944 q 711 900 700 917 q 751 772 747 842 q 724 639 756 701 q 697 594 713 615 q 661 556 681 574 q 625 526 646 540 q 661 497 646 513 q 675 483 668 490 q 689 467 682 475 z "},"4":{"ha":804,"x_min":42,"x_max":763,"o":"m 763 321 l 763 269 q 744 223 763 242 q 697 204 725 204 l 625 204 l 625 0 l 486 0 l 486 204 l 42 204 l 42 331 l 474 1042 l 560 1042 q 606 1023 588 1042 q 625 976 625 1004 l 625 321 l 763 321 m 486 838 l 172 321 l 486 321 l 486 838 z "},"5":{"ha":796,"x_min":42,"x_max":754,"o":"m 754 406 l 754 339 q 751 295 753 317 q 744 254 749 274 q 654 88 724 156 q 542 23 607 43 q 394 0 478 3 l 392 0 q 244 23 308 3 q 132 88 179 43 q 74 175 96 122 q 42 281 51 228 l 182 281 q 260 162 203 203 q 393 117 318 121 q 479 135 439 119 q 550 179 519 150 q 598 253 581 208 q 615 361 615 299 l 615 406 q 599 513 615 469 q 551 583 582 557 q 481 622 521 610 q 393 636 440 633 q 291 614 338 633 q 217 550 244 594 l 140 550 q 93 569 113 550 q 74 615 74 588 l 74 1042 l 646 1042 q 693 1023 674 1042 q 713 976 713 1004 l 713 904 l 213 904 l 213 713 q 294 741 250 732 q 392 753 339 750 l 394 753 q 542 730 478 750 q 654 665 607 710 q 744 499 724 600 q 754 406 754 458 z "},"6":{"ha":806,"x_min":42,"x_max":764,"o":"m 724 528 q 753 439 743 488 q 764 338 764 390 l 764 310 q 665 88 753 171 q 553 23 618 43 q 406 0 489 3 l 403 0 q 255 23 319 3 q 142 88 190 43 q 83 165 107 121 q 43 349 43 240 l 43 521 l 43 693 q 142 954 42 856 q 255 1019 190 999 q 403 1042 319 1039 l 406 1042 q 551 1019 489 1039 q 660 954 613 999 q 711 892 689 926 l 711 890 q 719 858 719 875 q 701 812 719 831 q 656 793 682 793 l 608 793 q 531 892 585 864 q 404 924 478 921 q 316 909 357 921 q 245 871 275 897 q 198 801 215 844 q 181 693 181 758 l 181 629 q 280 670 225 657 q 401 686 335 683 l 404 686 q 552 667 488 683 q 664 606 617 650 q 724 528 699 572 m 626 338 q 609 453 626 410 q 561 522 592 497 q 490 556 531 547 q 403 568 450 565 q 320 556 358 565 q 252 523 282 546 q 203 463 222 500 q 181 371 185 426 l 181 349 q 198 240 181 283 q 245 170 215 197 q 316 131 275 143 q 404 117 357 119 q 486 129 447 118 q 554 163 525 140 q 603 223 583 186 q 626 314 622 260 l 626 338 z "},"7":{"ha":783,"x_min":42,"x_max":763,"o":"m 763 976 l 763 942 l 754 925 l 268 0 l 111 0 l 597 925 l 42 925 l 42 976 q 61 1023 42 1004 q 108 1042 81 1042 l 697 1042 q 744 1023 725 1042 q 763 976 763 1004 z "},"8":{"ha":799,"x_min":43,"x_max":756,"o":"m 732 432 q 756 313 756 374 q 732 193 756 251 q 679 106 714 147 q 669 97 674 101 q 660 88 665 92 q 548 23 613 43 q 400 0 483 3 l 399 0 q 251 23 315 3 q 139 88 186 43 q 128 97 133 92 q 119 106 124 101 q 67 193 85 147 q 43 313 43 251 q 67 432 43 374 q 119 519 85 478 q 128 528 124 524 q 139 538 133 533 q 175 567 157 556 q 156 581 164 574 q 139 596 147 588 q 133 600 136 597 q 79 682 97 636 q 61 775 61 728 q 79 868 61 822 q 133 950 97 914 q 139 954 136 953 q 156 970 147 963 q 176 985 165 978 q 276 1026 221 1013 q 399 1042 332 1039 l 400 1042 q 522 1026 467 1039 q 622 985 578 1013 q 642 970 633 978 q 660 954 651 963 q 661 953 661 954 q 718 870 699 917 q 738 775 738 824 q 718 680 738 726 q 661 597 699 633 q 660 596 661 597 q 624 567 644 581 q 660 538 644 553 q 669 528 665 533 q 679 519 674 524 q 732 432 714 478 m 339 917 q 252 863 281 904 q 224 775 224 822 q 252 687 224 728 q 339 633 281 646 q 362 629 350 631 q 386 626 374 628 q 399 626 393 625 q 411 626 404 626 q 435 629 421 628 q 457 632 449 631 q 545 686 515 644 q 575 775 575 728 q 545 864 575 822 q 457 918 515 906 q 429 922 443 921 q 400 925 415 924 l 399 925 q 339 917 368 924 m 604 238 q 604 388 635 314 q 524 479 579 453 q 400 508 469 506 l 399 508 q 274 479 329 506 q 194 388 219 453 q 194 238 164 314 q 274 146 219 172 q 399 117 329 119 l 400 117 q 524 146 469 119 q 604 238 579 172 z "},"9":{"ha":806,"x_min":42,"x_max":764,"o":"m 83 514 q 52 602 63 553 q 43 704 42 651 l 43 732 q 140 954 51 869 q 253 1019 188 999 q 401 1042 318 1039 l 404 1042 q 552 1019 488 1039 q 664 954 617 999 q 724 876 701 919 q 764 693 764 799 l 764 521 l 764 349 q 664 88 764 183 q 552 23 617 43 q 404 0 488 3 l 401 0 q 256 23 318 3 q 146 88 193 43 q 96 150 117 117 q 94 151 96 150 q 89 167 92 158 q 86 183 86 175 q 105 230 86 211 q 151 249 124 249 l 199 249 q 276 149 222 178 q 403 118 329 121 l 403 117 q 490 131 450 119 q 561 170 531 143 q 609 240 592 197 q 626 349 626 283 l 626 413 q 526 372 582 385 q 404 356 471 358 l 403 356 q 254 375 319 358 q 142 436 189 392 q 109 473 124 454 q 83 514 94 492 m 181 704 q 198 588 181 632 q 245 519 215 544 q 316 485 275 494 q 404 472 357 475 q 486 485 447 475 q 554 519 525 496 q 602 578 583 542 q 625 671 621 615 l 625 693 q 608 801 625 758 q 561 872 592 844 q 490 910 531 899 q 403 925 450 922 q 320 912 358 922 q 253 878 282 901 q 204 819 224 856 q 181 728 185 782 l 181 704 z "},"\u0000":{"ha":0,"x_min":0,"x_max":0,"o":""},"\r":{"ha":694,"x_min":0,"x_max":0,"o":""}," ":{"ha":347,"x_min":0,"x_max":0,"o":""},"U":{"ha":832,"x_min":42,"x_max":828,"o":"m 401 0 q 253 17 318 1 q 140 76 188 32 q 42 338 42 172 l 42 975 q 60 1022 42 1003 q 106 1042 79 1040 l 179 1042 l 179 338 q 197 231 179 272 q 244 164 214 189 q 314 128 274 139 q 401 117 354 118 q 489 128 449 118 q 560 164 529 139 q 608 231 590 189 q 625 338 625 272 l 625 975 q 643 1022 625 1003 q 689 1042 661 1040 l 828 1042 q 781 1022 800 1042 q 763 975 763 1003 l 763 338 q 663 76 763 172 q 550 17 615 32 q 401 0 485 1 z "},"L":{"ha":508,"x_min":42,"x_max":467,"o":"m 467 51 l 467 0 l 215 0 q 148 14 179 0 q 93 51 117 28 q 56 106 69 75 q 42 174 42 138 l 42 1042 l 114 1042 q 160 1023 142 1042 q 179 976 179 1004 l 179 182 q 199 135 179 154 q 246 117 218 117 l 401 117 q 448 98 429 117 q 467 51 467 79 z "},"C":{"ha":660,"x_min":69,"x_max":618,"o":"m 207 693 l 207 338 q 224 231 207 272 q 272 164 242 189 q 342 128 301 139 q 429 117 382 118 l 553 117 q 599 97 581 117 q 618 50 618 78 l 618 0 l 429 0 q 281 17 346 1 q 168 76 217 32 q 69 338 69 172 l 69 693 q 168 954 69 860 q 281 1019 217 999 q 429 1042 346 1039 l 553 1042 q 599 1022 581 1042 q 618 975 618 1003 l 618 925 l 429 925 q 342 910 382 922 q 272 872 301 899 q 224 801 242 844 q 207 693 207 758 z "},"B":{"ha":832,"x_min":4,"x_max":790,"o":"m 790 643 q 772 596 790 615 q 725 574 753 576 q 771 551 753 571 q 790 504 790 532 l 790 338 q 692 76 790 172 q 579 17 644 33 q 431 0 513 0 l 4 0 q 51 19 32 0 q 71 65 71 38 l 71 868 q 84 935 71 904 q 121 990 97 967 q 176 1028 144 1014 q 243 1042 207 1042 l 432 1042 q 580 1019 515 1039 q 692 954 644 999 q 790 693 790 860 l 790 643 m 653 693 q 636 801 653 758 q 589 872 619 844 q 518 910 558 899 q 431 925 478 922 l 274 925 q 227 906 246 925 q 208 858 208 886 l 208 182 q 227 135 208 154 q 274 117 246 117 l 431 117 q 518 128 478 118 q 589 164 558 139 q 636 231 619 189 q 653 338 653 272 l 653 454 q 630 490 647 476 q 589 504 613 504 l 344 504 q 297 523 317 504 q 278 569 278 542 l 278 643 l 589 643 q 630 657 613 643 q 653 693 647 671 z "},"E":{"ha":597,"x_min":4,"x_max":556,"o":"m 208 394 l 208 182 q 228 135 208 154 q 275 117 247 117 l 489 117 q 536 98 517 117 q 556 51 556 79 l 556 0 l 244 0 l 242 0 l 4 0 q 51 19 32 0 q 71 65 71 38 l 71 868 q 85 935 71 904 q 122 990 99 967 q 177 1028 146 1014 q 244 1042 208 1042 l 489 1042 q 536 1023 517 1042 q 556 976 556 1004 l 556 925 l 275 925 q 228 906 247 925 q 208 860 208 888 l 208 572 q 244 576 225 576 l 485 576 l 485 525 q 465 478 485 497 q 418 460 446 460 l 275 460 q 228 441 247 460 q 208 394 208 422 z "},"G":{"ha":804,"x_min":39,"x_max":761,"o":"m 761 174 q 747 106 761 138 q 710 51 733 75 q 656 14 688 28 q 589 0 624 0 l 400 0 q 252 18 317 3 q 140 78 188 33 q 42 339 39 172 l 42 694 q 140 954 39 860 q 252 1019 188 999 q 400 1042 317 1039 l 525 1042 q 572 1023 553 1042 q 590 976 590 1004 l 590 925 l 401 925 q 314 910 354 922 q 243 872 274 899 q 196 803 213 846 q 179 694 179 760 l 179 339 q 196 232 179 274 q 243 165 213 190 q 314 129 274 140 q 401 117 354 118 l 557 117 q 604 136 585 117 q 624 183 624 156 l 624 397 q 605 444 624 425 q 558 463 586 463 l 314 463 q 267 482 286 463 q 249 529 249 501 l 249 581 l 696 581 q 740 563 722 581 q 761 519 758 544 l 761 174 z "},"H":{"ha":811,"x_min":4,"x_max":790,"o":"m 790 704 q 778 639 790 669 q 742 585 765 608 q 790 465 790 536 l 790 65 q 772 19 790 38 q 725 0 753 0 l 651 0 l 651 457 q 633 503 651 485 q 586 522 614 522 l 274 522 q 227 503 246 522 q 208 457 208 485 l 208 65 q 189 19 208 38 q 142 0 169 0 l 4 0 q 51 19 32 0 q 69 65 69 38 l 69 465 q 82 531 69 500 q 117 585 94 561 q 82 639 94 608 q 69 704 69 669 l 69 975 q 88 1022 69 1003 q 135 1042 107 1040 l 208 1042 l 208 714 q 227 667 208 686 q 274 649 246 649 l 586 649 q 633 667 614 649 q 651 714 651 686 l 651 975 q 670 1022 651 1003 q 717 1042 689 1040 l 790 1042 l 790 704 z "},"J":{"ha":536,"x_min":4,"x_max":494,"o":"m 494 1042 l 488 1042 q 447 1021 464 1039 q 429 978 429 1003 l 429 339 q 331 78 429 174 q 219 18 283 33 q 72 1 156 3 l 4 0 l 4 51 q 23 98 4 79 q 69 118 42 117 q 126 123 89 119 q 199 147 163 126 q 264 211 236 167 q 292 339 292 256 l 292 976 q 310 1023 292 1004 q 357 1042 329 1042 l 429 1042 l 494 1042 z "},"K":{"ha":661,"x_min":4,"x_max":619,"o":"m 619 875 q 519 615 619 708 q 503 600 511 607 q 483 586 494 593 q 503 572 494 579 q 519 557 511 565 q 619 297 619 463 l 619 65 q 601 19 619 38 q 554 0 582 0 l 482 0 l 482 297 q 466 401 482 360 q 422 470 450 443 q 357 510 394 497 q 275 526 319 522 q 254 525 264 528 q 221 501 233 518 q 208 463 208 485 l 208 65 q 189 19 208 38 q 142 0 169 0 l 4 0 q 51 19 32 0 q 71 65 71 38 l 71 976 q 90 1023 71 1004 q 136 1042 108 1042 l 208 1042 l 208 644 l 260 644 q 347 659 307 647 q 417 697 388 671 q 465 767 447 724 q 482 875 482 810 l 482 976 q 501 1023 482 1004 q 547 1042 519 1042 l 619 1042 l 619 875 l 619 875 z "},"M":{"ha":1088,"x_min":4,"x_max":1050,"o":"m 979 0 l 919 0 l 758 735 l 631 171 l 599 32 q 585 8 594 15 q 558 0 572 0 q 532 8 543 0 q 518 32 521 17 l 486 171 l 358 735 l 210 51 q 187 14 204 28 q 146 0 169 0 l 4 0 q 45 14 28 0 q 68 50 63 28 l 272 989 q 295 1027 278 1013 q 336 1042 313 1042 l 425 1042 l 558 472 l 679 990 q 703 1028 686 1014 q 744 1042 721 1042 l 833 1042 l 1043 79 q 1031 24 1050 49 q 979 0 1011 0 z "},"N":{"ha":832,"x_min":4,"x_max":790,"o":"m 790 1042 l 790 0 l 710 0 q 660 13 682 0 q 625 49 638 25 l 208 793 l 208 65 q 190 19 208 38 q 143 0 171 0 l 4 0 q 51 19 32 0 q 69 65 69 38 l 69 1042 l 151 1042 q 201 1028 178 1042 q 236 992 224 1015 l 653 247 l 653 975 q 672 1022 653 1003 q 718 1042 690 1042 l 790 1042 z "},"O":{"ha":800,"x_min":42,"x_max":758,"o":"m 658 954 q 758 694 758 860 l 758 338 q 658 78 758 171 q 548 17 613 33 q 400 0 483 1 q 252 17 317 1 q 140 78 188 33 q 42 338 42 172 l 42 694 q 140 954 42 860 q 252 1019 188 999 q 400 1042 317 1039 q 548 1019 483 1039 q 658 954 613 999 m 621 694 q 603 802 621 758 q 556 872 586 846 q 486 910 526 899 q 400 925 446 922 q 314 910 354 922 q 244 872 274 899 q 197 802 214 846 q 179 694 179 758 l 179 338 q 197 231 179 272 q 244 165 214 189 q 314 129 274 140 q 400 117 354 118 q 486 129 446 118 q 556 165 526 140 q 603 231 586 189 q 621 338 621 272 l 621 694 z "},"P":{"ha":832,"x_min":4,"x_max":790,"o":"m 429 1042 q 578 1024 513 1039 q 690 964 643 1008 q 789 736 781 878 l 789 717 q 790 704 789 711 q 757 539 790 611 q 690 446 735 488 q 578 386 643 401 q 429 368 513 371 l 276 368 l 276 419 q 295 466 276 447 q 342 485 314 485 l 429 485 q 517 497 476 486 q 588 533 557 508 q 635 599 618 557 q 653 704 653 640 q 635 810 653 768 q 588 877 618 853 q 517 912 557 901 q 429 924 476 922 q 342 909 382 921 q 272 871 301 897 q 224 801 242 844 q 207 693 207 758 l 207 65 q 188 19 207 38 q 142 0 169 0 l 4 0 q 51 19 32 0 q 69 65 69 38 l 69 693 q 168 954 69 860 q 281 1019 215 999 q 429 1042 346 1039 z "},"Q":{"ha":839,"x_min":42,"x_max":835,"o":"m 403 0 q 254 18 319 3 q 142 78 189 33 q 42 338 42 171 l 42 522 l 42 693 q 142 954 42 860 q 253 1019 189 999 q 401 1042 318 1039 q 550 1019 485 1039 q 663 954 615 999 q 761 693 761 860 l 761 536 l 761 339 q 722 157 761 231 q 761 -24 761 83 l 761 -32 q 782 -83 761 -62 q 835 -104 803 -104 l 689 -104 q 642 -85 661 -104 q 624 -39 624 -67 l 624 -24 q 622 13 624 -4 q 618 46 621 29 q 521 11 575 19 q 403 0 467 3 m 618 269 q 624 338 624 297 l 624 522 l 624 693 q 606 802 624 758 q 559 872 589 846 q 489 910 529 899 q 401 924 449 921 q 314 910 354 921 q 244 872 274 899 q 197 802 214 846 q 179 693 179 758 l 179 532 l 179 338 q 197 231 179 272 q 244 164 214 189 q 315 128 274 139 q 403 117 356 118 q 485 128 446 118 q 554 160 524 138 q 485 194 524 183 q 403 207 446 204 l 403 324 q 521 309 467 321 q 618 269 575 297 z "},"S":{"ha":767,"x_min":4,"x_max":725,"o":"m 725 513 l 725 347 q 625 88 725 181 q 513 23 578 43 q 365 0 449 3 l 69 0 q 23 19 42 0 q 4 65 4 38 l 4 117 l 4 182 q 23 135 4 154 q 69 117 42 117 l 365 117 q 452 131 411 118 q 523 169 493 143 q 570 239 553 196 q 588 347 588 282 l 588 461 l 69 461 q 23 480 42 461 q 4 526 4 499 l 4 578 l 4 693 q 103 954 4 860 q 215 1019 150 999 q 364 1042 281 1039 l 660 1042 q 706 1022 688 1042 q 725 975 725 1003 l 725 925 l 364 925 q 276 910 317 922 q 206 872 236 899 q 159 801 176 844 q 142 693 142 758 l 142 578 l 660 578 q 706 559 688 578 q 725 513 725 540 z "},"T":{"ha":753,"x_min":28,"x_max":749,"o":"m 749 976 l 749 925 l 525 925 q 478 906 497 925 q 460 860 460 888 l 460 67 q 441 19 460 39 q 394 0 422 0 l 257 0 q 303 19 285 0 q 322 67 322 39 l 322 860 q 303 906 322 888 q 257 925 285 925 l 93 925 q 47 944 65 925 q 28 992 28 964 l 28 1042 l 683 1042 q 730 1023 711 1042 q 749 976 749 1004 z "},"V":{"ha":808,"x_min":42,"x_max":804,"o":"m 42 1042 l 114 1042 q 165 1025 142 1042 q 197 981 189 1008 l 371 364 q 383 346 375 351 q 401 340 392 340 q 420 346 411 340 q 432 364 429 351 l 606 978 q 638 1024 614 1006 q 690 1042 661 1042 l 797 1042 l 804 1042 q 769 1026 785 1039 q 749 994 754 1014 l 468 0 l 397 0 q 348 16 369 0 q 318 60 326 32 l 42 1042 z "},"W":{"ha":1279,"x_min":42,"x_max":1275,"o":"m 42 1042 l 114 1042 q 167 1024 143 1042 q 199 976 190 1006 l 372 363 q 384 345 375 351 q 403 339 393 339 q 421 345 413 339 q 433 363 429 351 l 619 1028 q 638 1042 624 1042 q 656 1028 651 1042 q 672 968 661 1007 q 697 878 683 929 q 727 769 711 828 q 760 654 743 711 q 842 363 797 519 q 853 345 844 351 q 872 339 863 339 q 891 345 882 339 q 903 363 900 351 l 1076 978 q 1108 1024 1085 1006 q 1161 1042 1131 1042 l 1233 1042 l 1268 1042 l 1275 1042 q 1240 1026 1256 1039 q 1219 994 1225 1014 l 942 10 l 939 0 l 868 0 q 818 16 840 0 q 789 58 796 32 l 653 542 l 638 597 l 621 542 l 471 10 l 468 0 l 397 0 q 348 16 369 0 q 319 58 326 32 l 42 1042 z "},"X":{"ha":832,"x_min":4,"x_max":790,"o":"m 233 1042 l 233 871 q 266 731 233 779 q 351 660 299 682 q 406 646 375 650 l 407 646 l 414 646 q 446 646 429 643 l 453 646 q 507 660 485 650 q 594 731 561 682 q 626 871 626 779 l 626 976 q 645 1023 626 1004 q 692 1042 664 1042 l 764 1042 l 764 871 q 664 610 764 703 q 635 586 650 596 q 640 583 638 585 q 644 581 642 582 q 668 565 657 574 q 690 546 679 556 q 790 285 790 450 l 790 67 q 772 19 790 39 q 725 0 753 0 l 653 0 l 653 285 q 638 388 653 346 q 595 456 622 429 q 532 497 568 483 q 453 514 496 510 q 449 515 450 514 q 446 515 449 515 l 414 515 q 411 515 413 515 q 408 514 410 514 l 406 514 q 327 497 364 510 q 264 456 290 483 q 222 388 238 429 q 207 285 207 346 l 207 67 q 188 19 207 39 q 142 0 169 0 l 4 0 q 51 19 32 0 q 69 67 69 39 l 69 285 q 169 546 69 450 q 192 565 181 556 q 214 581 203 574 q 219 583 217 582 q 225 586 222 585 q 196 610 210 596 q 96 871 96 703 l 96 976 q 115 1023 96 1004 q 161 1042 133 1042 l 233 1042 z "},"Y":{"ha":767,"x_min":42,"x_max":763,"o":"m 763 1042 l 763 869 q 693 643 763 732 q 663 610 676 622 q 590 560 632 579 q 583 557 586 558 q 575 554 579 556 q 499 483 528 531 q 471 350 471 435 l 471 65 q 452 19 471 38 q 406 0 433 0 l 267 0 q 314 19 294 0 q 333 65 333 38 l 333 350 q 305 483 333 435 q 228 554 276 531 q 221 557 225 556 q 214 560 217 558 q 140 610 175 578 q 111 643 124 624 q 42 869 42 729 l 42 976 q 60 1022 42 1003 q 107 1042 79 1040 l 179 1042 l 179 869 q 208 737 179 785 q 283 665 236 689 q 291 662 288 663 q 299 658 294 661 q 401 639 346 640 q 506 658 458 642 q 513 662 508 661 q 519 665 517 663 q 597 737 568 689 q 625 869 625 785 l 625 976 q 644 1022 625 1003 q 690 1042 663 1042 l 763 1042 z "},"Z":{"ha":869,"x_min":42,"x_max":828,"o":"m 828 199 l 828 71 q 810 23 828 43 q 764 0 792 3 l 756 0 l 144 0 q 114 8 128 0 q 92 30 100 17 q 83 59 83 43 q 90 90 82 75 l 568 878 q 568 902 575 890 q 547 914 561 914 l 113 914 q 65 932 85 914 q 42 978 44 950 l 42 986 l 42 1042 l 725 1042 q 756 1033 742 1042 q 778 1012 769 1025 q 787 982 786 999 q 779 950 788 965 l 301 163 q 301 140 294 151 q 322 128 308 128 l 757 128 q 807 149 786 128 q 828 199 828 169 z "},"a":{"ha":749,"x_min":42,"x_max":742,"o":"m 742 0 l 606 0 q 560 19 579 0 q 542 64 542 38 l 542 517 q 523 562 542 543 q 478 581 504 581 l 394 581 q 309 566 349 578 q 240 528 269 554 q 193 461 210 503 q 176 356 176 419 l 176 340 q 193 234 176 276 q 240 166 210 192 q 309 128 269 140 q 394 115 349 117 l 410 115 q 455 97 436 115 q 474 50 474 78 l 474 0 l 393 0 q 248 22 311 3 q 139 86 185 42 q 42 340 42 178 l 42 356 q 139 610 42 518 q 248 673 185 654 q 393 694 311 692 l 507 694 q 573 681 542 694 q 628 645 604 668 q 665 591 651 622 q 678 525 678 560 l 678 64 q 696 19 678 38 q 742 0 714 0 z "},"b":{"ha":733,"x_min":42,"x_max":692,"o":"m 692 349 l 692 346 q 663 190 692 258 q 592 88 638 131 q 508 33 556 53 q 403 6 461 14 q 369 2 386 3 q 332 0 351 1 l 215 0 q 148 14 179 0 q 93 51 117 28 q 56 106 69 75 q 42 174 42 138 l 42 976 q 60 1023 42 1004 q 107 1042 79 1042 l 179 1042 l 179 182 q 199 135 179 154 q 246 117 218 117 l 332 117 q 419 131 378 119 q 490 169 460 143 q 537 239 519 196 q 554 347 554 282 l 554 349 q 537 456 554 413 q 489 526 519 500 q 418 563 458 551 q 331 578 378 575 l 315 578 q 269 597 288 578 q 250 643 250 615 l 250 694 l 332 694 q 480 672 415 692 q 592 608 544 653 q 663 504 638 564 q 692 349 692 435 z "},"r":{"ha":465,"x_min":4,"x_max":424,"o":"m 167 614 q 251 668 203 649 q 360 694 300 688 q 405 676 386 694 q 424 631 424 657 l 424 585 q 338 570 378 582 q 267 532 297 558 q 221 463 238 506 q 204 357 204 421 l 204 65 q 185 19 204 38 q 140 0 167 0 l 4 0 q 51 19 32 0 q 69 65 69 38 l 69 357 q 167 614 68 519 z "},"i":{"ha":221,"x_min":42,"x_max":179,"o":"m 179 1042 l 179 926 q 160 883 179 899 q 114 867 142 867 l 42 867 l 42 976 q 60 1023 42 1004 q 107 1042 79 1042 l 179 1042 m 179 694 l 179 65 q 160 19 179 38 q 114 0 142 0 l 42 0 l 42 628 q 60 675 42 656 q 107 694 79 694 l 179 694 z "},"d":{"ha":733,"x_min":42,"x_max":692,"o":"m 42 349 q 71 504 42 435 q 142 608 96 564 q 253 672 189 653 q 401 694 318 692 l 483 694 l 483 643 q 465 597 483 615 q 418 578 446 578 l 403 578 q 315 563 356 575 q 244 526 274 551 q 197 456 214 500 q 179 349 179 413 l 179 347 q 197 239 179 282 q 244 169 214 196 q 315 131 274 143 q 401 117 356 119 l 488 117 q 535 135 515 117 q 554 182 554 154 l 554 1042 l 626 1042 q 673 1023 654 1042 q 692 976 692 1004 l 692 174 q 678 106 692 138 q 640 51 664 75 q 585 14 617 28 q 518 0 554 0 l 401 0 q 365 2 382 1 q 331 6 347 3 q 225 33 272 14 q 142 88 178 53 q 71 190 96 131 q 42 346 42 258 l 42 349 l 42 349 z "},"u":{"ha":651,"x_min":42,"x_max":647,"o":"m 42 169 l 42 631 q 60 676 42 658 q 106 694 79 694 l 176 694 l 176 179 q 195 133 176 151 q 242 115 214 115 l 383 115 q 428 133 410 115 q 447 179 447 151 l 447 631 q 466 676 447 658 q 511 694 485 694 l 647 694 q 601 676 619 694 q 582 631 582 658 l 582 169 q 569 103 582 135 q 533 49 556 72 q 478 13 510 26 q 413 0 447 0 l 211 0 q 145 13 176 0 q 91 49 114 26 q 55 103 68 72 q 42 169 42 135 z "},"l":{"ha":250,"x_min":4,"x_max":208,"o":"m 208 1042 l 208 65 q 190 19 208 38 q 143 0 171 0 l 4 0 q 51 19 32 0 q 69 65 69 38 l 69 976 q 88 1022 69 1003 q 135 1042 107 1040 l 208 1042 z "},"c":{"ha":583,"x_min":42,"x_max":542,"o":"m 393 581 q 308 567 347 578 q 239 530 268 556 q 193 462 210 504 q 176 356 176 419 l 176 339 q 193 234 176 276 q 239 166 210 192 q 308 128 268 140 q 393 115 347 117 l 478 115 q 523 97 504 115 q 542 50 542 78 l 542 0 l 393 0 q 248 22 311 3 q 139 86 185 42 q 69 188 93 128 q 42 339 42 251 l 42 357 q 69 508 42 444 q 139 610 92 564 q 248 673 185 654 q 393 694 311 692 l 478 694 q 523 676 504 694 q 542 631 542 658 l 542 581 l 393 581 l 393 581 z "},"e":{"ha":718,"x_min":42,"x_max":676,"o":"m 676 525 l 676 460 q 663 394 676 425 q 627 340 650 363 q 573 303 604 317 q 507 290 542 290 l 388 290 q 342 309 360 290 q 324 354 324 328 l 324 406 l 478 406 q 523 424 504 406 q 542 469 542 442 l 542 517 q 523 562 542 543 q 478 581 504 581 l 393 581 q 308 566 347 578 q 239 528 268 554 q 193 460 210 503 q 176 356 176 418 l 176 339 q 193 234 176 276 q 239 166 210 192 q 308 128 268 140 q 393 115 347 117 l 613 115 q 658 97 640 115 q 676 50 676 78 l 676 0 l 393 0 q 248 22 311 3 q 139 86 185 42 q 69 186 93 128 q 42 339 42 250 l 42 356 q 69 508 42 444 q 139 610 92 564 q 248 673 185 654 q 393 694 311 692 l 507 694 q 573 681 542 694 q 627 645 604 668 q 663 591 650 622 q 676 525 676 560 z "},"f":{"ha":549,"x_min":42,"x_max":507,"o":"m 507 978 l 507 929 q 495 928 500 929 q 485 928 490 928 q 419 915 451 924 q 324 840 361 896 q 283 694 286 785 l 372 694 q 419 675 400 694 q 439 628 439 656 l 439 569 l 283 569 l 283 65 q 264 19 283 38 q 217 0 244 0 l 78 0 q 124 18 106 0 q 144 64 143 36 l 144 569 l 108 569 q 61 589 81 569 q 42 636 42 608 l 42 694 l 144 694 q 172 843 147 772 q 244 958 196 914 q 432 1040 314 1025 l 433 1042 l 442 1042 q 487 1024 468 1042 q 507 978 506 1006 z "},"g":{"ha":760,"x_min":42,"x_max":718,"o":"m 718 514 l 718 -167 q 677 -282 718 -233 q 574 -343 636 -331 q 556 -347 564 -346 q 538 -347 549 -347 l 114 -347 l 114 -294 q 134 -246 114 -267 q 182 -225 154 -225 l 506 -225 q 553 -206 533 -225 q 574 -158 574 -186 l 574 504 q 554 552 574 532 q 506 572 535 572 l 417 572 q 326 559 368 569 q 252 524 283 549 q 203 456 221 499 q 185 346 185 414 l 185 342 q 203 232 185 274 q 252 166 221 190 q 326 133 283 142 q 417 121 368 124 l 433 121 q 481 101 461 121 q 501 54 501 82 l 501 0 l 417 0 l 415 0 q 261 22 329 3 q 144 88 193 42 q 103 135 121 111 q 71 189 85 158 q 49 260 56 225 q 42 342 42 294 l 42 346 q 49 427 42 392 q 71 499 56 463 q 103 556 85 531 q 144 604 121 581 q 232 660 183 640 q 343 689 281 681 q 378 692 360 692 q 415 694 396 693 l 538 694 q 608 681 575 694 q 665 642 640 667 q 704 584 690 617 q 718 514 718 551 z "},"h":{"ha":761,"x_min":4,"x_max":719,"o":"m 719 522 l 719 65 q 701 19 719 38 q 654 0 682 0 l 581 0 l 581 513 q 562 559 581 540 q 515 578 543 578 l 429 578 q 342 563 383 575 q 272 526 301 551 q 224 456 242 500 q 207 349 207 413 l 207 65 q 188 19 207 38 q 142 0 169 0 l 4 0 q 51 19 32 0 q 69 65 69 38 l 69 976 q 88 1023 69 1004 q 135 1042 107 1042 l 207 1042 l 207 638 q 307 678 251 665 q 429 694 363 692 l 546 694 q 613 681 582 694 q 668 644 644 668 q 706 590 692 621 q 719 522 719 558 z "},"j":{"ha":465,"x_min":49,"x_max":424,"o":"m 424 1042 l 424 931 q 403 885 424 903 q 356 867 383 867 l 281 867 l 281 972 q 301 1022 281 1001 q 349 1042 321 1042 l 424 1042 m 424 694 l 424 13 q 321 -256 424 -157 q 249 -305 289 -286 q 163 -335 210 -324 q 85 -346 124 -344 q 67 -347 76 -347 q 49 -347 58 -347 l 49 -285 q 63 -242 49 -260 q 101 -219 78 -225 l 104 -219 q 175 -197 143 -212 q 231 -152 207 -181 q 267 -83 254 -124 q 281 15 281 -42 l 281 625 q 301 674 281 654 q 349 694 321 694 l 424 694 z "},"k":{"ha":618,"x_min":4,"x_max":576,"o":"m 478 385 q 458 369 468 376 q 438 354 449 361 q 458 340 449 347 q 478 324 468 332 q 576 65 576 229 q 558 19 576 38 q 511 0 539 0 l 439 0 l 439 64 q 422 172 439 128 q 374 242 404 215 q 304 280 344 268 q 217 294 264 292 l 208 294 l 208 65 q 190 19 208 38 q 143 0 171 0 l 4 0 q 51 19 32 0 q 69 65 69 38 l 69 975 q 88 1022 69 1003 q 135 1042 107 1040 l 208 1042 l 208 414 l 217 414 q 303 426 263 417 q 374 460 344 436 q 422 524 404 483 q 439 629 439 564 q 458 676 439 657 q 504 694 476 694 l 576 694 l 576 631 q 551 490 576 547 q 478 385 526 432 z "},"m":{"ha":878,"x_min":4,"x_max":836,"o":"m 836 525 l 836 65 q 817 19 836 38 q 772 0 799 0 l 700 0 l 700 517 q 682 562 700 543 q 636 581 664 581 l 521 581 l 521 65 q 502 19 521 38 q 456 0 483 0 l 385 0 l 385 581 l 269 581 q 223 562 242 581 q 204 517 204 543 l 204 65 q 186 19 204 38 q 140 0 168 0 l 4 0 q 51 19 32 0 q 69 65 69 38 l 69 525 q 83 591 69 560 q 119 645 96 622 q 173 681 142 668 q 239 694 204 694 l 667 694 q 733 681 701 694 q 787 645 764 668 q 823 591 810 622 q 836 525 836 560 z "},"p":{"ha":733,"x_min":42,"x_max":692,"o":"m 692 346 q 663 190 692 258 q 592 86 638 129 q 480 22 544 42 q 332 0 415 3 l 250 0 l 250 51 q 269 98 250 79 q 315 117 288 117 l 331 117 q 418 131 378 118 q 489 169 458 143 q 537 238 519 194 q 554 346 554 281 l 554 347 q 537 455 554 411 q 490 525 519 499 q 419 563 460 551 q 332 578 378 575 l 246 578 q 199 559 218 578 q 179 513 179 540 l 179 -347 l 107 -347 q 60 -328 79 -347 q 42 -282 42 -310 l 42 521 q 56 588 42 557 q 93 643 69 619 q 148 681 117 667 q 215 694 179 694 l 332 694 q 369 692 351 693 q 403 689 386 692 q 508 661 461 681 q 592 607 556 642 q 663 504 638 564 q 692 349 692 435 l 692 346 l 692 346 z "},"q":{"ha":733,"x_min":42,"x_max":692,"o":"m 42 346 l 42 349 q 71 504 42 435 q 142 607 96 564 q 225 661 178 642 q 331 689 272 681 q 365 692 347 692 q 401 694 382 693 l 518 694 q 585 681 554 694 q 640 643 617 667 q 678 588 664 619 q 692 521 692 557 l 692 -282 q 673 -328 692 -310 q 626 -347 654 -347 l 554 -347 l 554 513 q 535 559 554 540 q 488 578 515 578 l 401 578 q 315 563 356 575 q 244 525 274 551 q 197 455 214 499 q 179 347 179 411 l 179 346 q 197 238 179 281 q 244 169 214 194 q 315 131 274 143 q 403 117 356 118 l 418 117 q 465 98 446 117 q 483 51 483 79 l 483 0 l 401 0 q 253 22 318 3 q 142 86 189 42 q 71 190 96 129 q 42 346 42 258 z "},"n":{"ha":651,"x_min":4,"x_max":610,"o":"m 610 525 l 610 64 q 591 19 610 38 q 546 0 572 0 l 475 0 l 475 517 q 456 562 475 543 q 410 581 438 581 l 268 581 q 223 562 242 581 q 204 517 204 543 l 204 64 q 185 19 204 38 q 140 0 167 0 l 4 0 q 51 19 32 0 q 69 64 69 38 l 69 525 q 83 591 69 560 q 119 645 96 622 q 172 681 142 668 q 239 694 203 694 l 440 694 q 506 681 475 694 q 560 645 538 668 q 597 591 583 622 q 610 525 610 560 z "},"o":{"ha":721,"x_min":40,"x_max":679,"o":"m 582 611 q 679 357 679 518 l 679 338 q 582 82 679 175 q 499 29 546 47 q 449 12 475 18 q 396 1 424 6 q 328 1 361 -3 l 326 1 q 222 28 268 10 q 140 82 176 47 q 43 338 40 175 l 43 357 q 140 611 40 518 q 222 665 176 646 q 326 692 268 685 l 328 692 q 396 692 361 696 q 499 665 456 683 q 543 642 522 654 q 582 611 564 629 m 544 357 q 504 506 544 457 q 399 572 464 556 q 322 572 360 583 q 217 506 258 556 q 178 357 176 457 l 178 338 q 188 250 178 288 q 218 187 199 213 q 264 145 238 161 q 322 121 290 129 q 399 121 360 113 q 504 187 464 138 q 544 338 544 236 l 544 357 z "},"s":{"ha":719,"x_min":42,"x_max":678,"o":"m 181 406 l 614 406 q 659 387 640 406 q 678 342 678 368 l 678 339 q 677 315 678 326 q 675 292 676 303 q 581 85 663 164 q 472 22 535 42 q 326 0 408 3 l 107 0 q 60 19 79 0 q 42 64 42 38 l 42 179 q 60 133 42 151 q 107 114 79 114 l 325 114 q 403 125 367 115 q 467 156 439 135 q 515 210 496 176 q 540 292 533 243 l 107 292 q 60 310 79 292 q 42 356 42 328 q 42 368 42 363 q 43 381 43 374 q 44 393 43 388 q 44 406 44 399 q 139 610 57 532 q 249 672 185 653 q 393 694 313 692 l 614 694 q 659 676 640 694 q 678 631 678 657 l 678 581 l 394 581 q 318 569 354 578 q 253 540 282 560 q 206 487 225 519 q 181 406 186 454 z "},"t":{"ha":511,"x_min":42,"x_max":507,"o":"m 507 65 q 488 19 507 38 q 442 0 469 0 l 433 0 l 432 0 l 431 0 q 326 28 372 8 q 244 82 281 47 q 144 343 144 178 l 144 569 l 108 569 q 61 589 81 569 q 42 636 42 608 l 42 694 l 144 694 l 144 975 q 163 1022 144 1003 q 210 1042 182 1042 l 282 1042 l 282 694 l 372 694 q 419 675 400 694 q 439 628 439 656 l 439 569 l 282 569 l 282 343 q 319 195 282 244 q 419 126 357 146 q 485 114 449 117 q 495 113 490 113 q 507 111 500 113 l 507 65 z "},"v":{"ha":726,"x_min":42,"x_max":722,"o":"m 722 694 q 686 683 703 694 q 663 656 669 672 q 653 628 663 656 q 628 558 643 601 q 592 460 613 515 q 551 349 572 406 q 442 42 503 214 l 442 40 l 426 0 l 336 0 q 300 11 317 0 q 276 40 283 22 l 276 42 l 272 53 l 42 694 l 132 694 q 168 683 151 694 q 192 653 185 672 l 329 269 q 335 260 331 263 q 338 257 338 257 q 359 249 347 249 q 381 257 371 249 l 383 260 q 386 265 385 263 q 388 269 388 267 l 526 653 q 528 656 526 654 l 528 657 q 551 684 535 674 q 586 694 567 694 l 722 694 z "},"w":{"ha":1069,"x_min":42,"x_max":1065,"o":"m 1065 694 q 1028 683 1044 694 q 1006 653 1013 672 l 808 42 l 796 0 l 718 0 q 681 12 697 0 q 658 42 665 24 l 531 396 l 531 393 l 389 0 l 311 0 q 275 11 292 0 q 251 40 258 22 l 251 42 l 42 694 l 131 694 q 166 683 150 694 q 189 656 182 672 l 304 290 q 326 269 313 269 q 350 290 342 267 l 494 668 q 508 687 497 679 q 531 694 518 694 q 568 668 558 694 l 711 290 q 733 269 719 269 q 757 290 749 267 l 869 653 q 871 656 871 654 q 894 683 878 672 q 929 694 910 694 l 1065 694 z "},"x":{"ha":817,"x_min":42,"x_max":775,"o":"m 775 76 l 775 69 q 754 20 775 40 q 704 0 733 0 l 626 0 l 626 76 q 600 206 628 161 q 525 276 572 250 q 444 297 488 297 q 363 276 400 297 q 288 206 315 250 q 261 76 261 163 l 261 69 q 240 20 261 40 q 190 0 219 0 l 42 0 q 92 20 71 0 q 113 69 113 40 l 113 76 q 140 228 113 165 q 219 342 167 292 q 269 381 240 363 q 259 390 264 385 q 249 399 254 394 q 175 497 201 443 q 143 626 149 551 q 160 674 140 654 q 207 694 179 694 l 289 694 l 289 668 q 313 545 289 589 q 376 474 336 501 q 444 453 407 453 q 511 474 481 454 q 568 531 546 497 q 596 626 590 565 l 596 629 q 597 631 596 631 q 597 632 597 631 q 619 676 600 658 q 667 694 639 694 l 746 694 l 746 668 q 720 515 747 579 q 639 399 693 450 q 628 390 633 394 q 618 381 624 385 q 668 342 647 363 q 748 228 721 292 q 775 76 775 165 z "},"y":{"ha":767,"x_min":4,"x_max":725,"o":"m 725 694 q 663 656 681 694 l 333 3 l 225 -308 q 164 -347 207 -347 l 6 -347 q 67 -308 49 -347 l 174 -1 q 176 36 182 14 l 4 694 l 100 694 q 142 680 124 694 q 165 643 160 665 l 168 635 l 264 264 q 292 239 269 240 q 324 258 314 238 l 497 640 l 504 656 q 567 694 522 694 l 725 694 z "},"z":{"ha":718,"x_min":40,"x_max":678,"o":"m 676 194 l 676 71 l 676 69 q 658 24 676 43 q 614 1 640 4 q 607 0 613 0 l 103 0 q 72 8 86 0 q 51 30 58 17 q 42 59 43 43 q 49 90 40 75 l 436 535 q 437 558 443 546 q 417 569 431 569 l 110 569 q 64 588 83 571 q 42 632 44 606 l 42 640 l 42 694 l 615 694 q 646 686 632 694 q 667 665 660 678 q 676 637 675 653 q 669 606 678 621 l 281 160 q 281 137 274 149 q 301 125 288 125 l 607 125 q 656 146 635 125 q 676 194 676 167 z "},":":{"ha":283,"x_min":69,"x_max":214,"o":"m 214 144 l 214 68 q 194 20 214 40 q 146 0 174 0 l 69 0 l 69 76 q 90 124 69 104 q 139 144 110 144 l 214 144 m 214 694 l 214 619 q 194 570 214 590 q 146 550 174 550 l 69 550 l 69 626 q 90 674 69 654 q 139 694 110 694 l 214 694 z "},"A":{"ha":832,"x_min":42,"x_max":828,"o":"m 828 65 q 809 19 828 38 q 763 0 790 0 l 690 0 l 690 213 q 672 259 690 240 q 625 278 653 278 l 381 278 q 334 297 353 278 q 315 343 315 315 l 315 394 l 690 394 l 690 858 q 672 906 690 886 q 625 925 653 925 l 468 925 q 381 910 421 922 q 310 872 340 899 q 263 801 279 844 q 246 693 246 758 l 246 65 q 226 19 246 38 q 179 0 207 0 l 42 0 q 89 19 69 0 q 108 65 108 38 l 108 693 q 207 954 106 860 q 319 1019 254 999 q 467 1042 383 1039 l 656 1042 q 723 1028 692 1042 q 778 990 754 1014 q 815 935 801 967 q 828 868 828 904 l 828 65 z "},"F":{"ha":624,"x_min":4,"x_max":619,"o":"m 619 975 l 619 925 l 274 925 q 227 906 246 925 q 208 858 208 886 l 208 642 q 225 644 217 643 q 243 644 233 644 l 483 644 l 483 593 q 465 547 483 565 q 418 528 446 528 l 274 528 q 227 509 246 528 q 208 463 208 490 l 208 65 q 190 19 208 38 q 143 0 171 0 l 4 0 q 51 19 32 0 q 69 65 69 38 l 69 868 q 83 935 69 904 q 121 990 97 967 q 176 1028 144 1014 q 243 1042 207 1042 l 553 1042 q 600 1022 581 1042 q 619 975 619 1003 z "},"R":{"ha":832,"x_min":4,"x_max":790,"o":"m 431 1042 q 579 1024 514 1039 q 692 964 644 1008 q 790 736 779 881 l 790 717 q 758 551 790 624 q 692 458 733 499 q 663 435 678 444 q 738 201 738 344 l 738 65 q 719 19 738 38 q 672 0 700 0 l 600 0 l 600 201 q 578 315 600 271 q 513 385 557 358 q 431 381 472 381 l 278 381 l 278 432 q 297 478 278 460 q 343 497 315 497 l 431 497 q 490 503 461 499 q 542 518 518 507 q 620 581 590 538 q 653 706 650 624 q 635 811 653 769 q 588 877 618 853 q 517 912 558 901 q 431 924 476 922 q 343 909 383 921 q 272 871 303 897 q 225 801 242 844 q 208 693 208 758 l 208 65 q 189 19 208 38 q 142 0 169 0 l 4 0 q 51 19 32 0 q 69 65 69 38 l 69 693 q 169 954 69 860 q 282 1019 217 999 q 431 1042 347 1039 z "},"I":{"ha":250,"x_min":4,"x_max":208,"o":"m 208 1042 l 208 65 q 190 19 208 38 q 143 0 171 0 l 4 0 q 51 19 32 0 q 69 65 69 38 l 69 975 q 89 1022 69 1003 q 136 1042 108 1042 l 208 1042 z "},"˘":{"ha":338,"x_min":0,"x_max":0,"o":""},"!":{"ha":276,"x_min":69,"x_max":207,"o":"m 207 1042 l 207 274 q 188 227 207 246 q 142 208 169 208 l 69 208 l 69 976 q 88 1023 69 1004 q 135 1042 107 1042 l 207 1042 m 207 139 l 207 67 q 188 19 207 39 q 142 0 169 0 l 69 0 l 69 74 q 88 120 69 101 q 135 139 107 139 l 207 139 z "},"\"":{"ha":636,"x_min":69,"x_max":567,"o":"m 268 1042 l 268 843 q 214 728 260 769 q 153 692 189 703 q 71 679 117 682 l 71 722 q 83 756 71 742 q 114 774 94 771 q 152 792 139 778 q 169 843 165 807 l 142 843 q 90 864 111 843 q 69 915 69 885 l 69 947 q 97 1015 69 988 q 164 1042 124 1042 l 268 1042 m 567 1042 l 567 843 q 514 728 560 772 q 451 692 488 703 q 369 679 415 682 l 369 722 q 381 756 369 742 q 413 774 393 771 q 451 792 438 778 q 468 843 465 807 l 440 843 q 389 864 410 843 q 368 915 368 885 l 368 947 q 395 1015 368 988 q 463 1042 422 1042 l 567 1042 z "},"#":{"ha":907,"x_min":69,"x_max":838,"o":"m 667 585 l 649 457 l 838 457 l 838 383 q 819 337 838 356 q 772 318 800 318 l 629 318 l 593 60 l 593 53 q 569 15 588 29 q 528 0 551 0 l 446 0 l 490 318 l 364 318 l 328 60 l 326 53 q 304 15 322 29 q 263 0 286 0 l 179 0 l 225 318 l 69 318 l 69 392 q 88 438 69 419 q 135 457 107 457 l 244 457 l 263 585 l 69 585 l 69 657 q 88 704 69 685 q 135 724 107 724 l 282 724 l 318 982 l 318 989 q 342 1026 324 1011 q 383 1042 360 1042 l 467 1042 l 421 724 l 547 724 l 583 982 l 585 989 q 607 1026 589 1011 q 649 1042 625 1042 l 732 1042 l 686 724 l 838 724 l 838 650 q 819 603 838 622 q 772 585 800 585 l 667 585 m 528 585 l 401 585 l 383 457 l 510 457 l 528 585 z "},"$":{"ha":781,"x_min":69,"x_max":711,"o":"m 711 346 q 687 200 711 265 q 613 86 663 135 q 528 33 575 51 q 424 4 482 14 l 424 -3 q 406 -50 424 -31 q 360 -69 388 -69 l 357 -69 l 357 0 l 353 0 l 136 0 q 89 18 108 0 q 69 64 69 36 l 69 117 l 69 182 q 89 135 69 154 q 136 117 108 117 l 351 117 l 357 117 l 357 461 l 136 461 q 89 480 108 461 q 69 526 69 499 l 69 579 l 69 694 q 94 843 69 778 q 169 956 118 908 q 252 1008 206 989 q 357 1036 299 1028 l 357 1044 q 375 1091 357 1072 q 419 1110 393 1110 l 424 1110 l 424 1042 l 429 1042 l 646 1042 q 692 1023 674 1042 q 711 976 711 1004 l 711 861 q 692 906 711 888 q 644 925 672 925 l 429 925 l 424 925 l 424 579 l 644 579 q 692 560 672 579 q 711 514 711 540 l 711 346 m 424 461 l 424 126 q 532 194 490 144 q 574 346 574 244 l 574 461 l 424 461 m 357 914 q 249 848 290 899 q 207 694 207 797 l 207 579 l 357 579 l 357 914 z "},"%":{"ha":938,"x_min":69,"x_max":868,"o":"m 867 218 q 868 206 868 211 q 868 194 868 201 l 868 150 q 868 139 868 144 q 867 128 868 133 q 825 38 860 72 q 714 0 785 1 l 713 0 l 711 0 q 647 10 674 1 q 600 38 619 19 q 557 128 564 72 q 556 139 557 133 q 556 150 556 144 l 556 194 q 556 206 556 201 q 557 218 557 211 q 600 307 564 275 q 711 346 639 344 l 713 346 l 714 346 q 825 307 786 344 q 867 218 860 274 m 774 194 q 759 241 774 226 q 713 258 744 256 q 665 241 679 256 q 651 194 651 226 l 651 150 q 665 104 651 118 q 713 88 679 90 q 759 104 744 90 q 774 150 774 118 l 774 194 m 381 914 q 381 902 381 907 q 382 890 382 897 l 382 846 q 381 835 382 840 q 381 824 381 829 q 338 733 375 771 q 291 706 318 714 q 226 694 264 697 l 224 694 q 159 706 186 697 q 113 733 132 714 q 69 824 75 771 l 69 846 l 69 890 l 69 914 q 113 1003 75 965 q 224 1042 151 1040 l 226 1042 q 338 1003 299 1040 q 381 914 375 965 m 286 890 q 272 937 286 922 q 225 954 258 951 q 178 937 192 951 q 164 890 164 922 l 164 846 q 178 799 164 814 q 225 782 192 785 q 272 799 258 785 q 286 846 286 814 l 286 890 m 829 1042 l 261 33 q 238 9 253 18 q 204 0 222 0 l 108 0 l 676 1010 q 699 1033 685 1024 q 733 1042 714 1042 l 829 1042 z "},"&":{"ha":1104,"x_min":68,"x_max":1036,"o":"m 1022 49 q 1028 17 1036 35 q 1001 0 1021 0 l 914 0 l 667 244 l 440 18 q 393 0 419 -3 q 263 25 321 6 q 163 85 206 44 q 158 90 160 88 q 154 94 157 92 q 107 158 125 122 q 70 291 72 221 q 96 426 68 361 q 125 480 108 454 q 165 526 142 506 q 182 542 174 535 q 200 556 190 549 l 201 556 q 210 560 206 558 q 218 565 214 563 q 209 574 214 569 q 200 582 204 578 q 192 590 196 586 q 185 597 188 593 q 134 682 150 635 q 119 777 118 729 q 140 871 121 825 q 196 953 160 917 q 197 954 197 953 q 239 985 217 971 q 376 1033 294 1021 q 390 1035 383 1035 q 406 1036 397 1035 q 563 1010 485 1044 q 638 961 603 992 q 728 789 707 894 q 709 742 728 761 q 663 724 690 724 l 599 724 q 569 835 594 792 q 504 900 544 878 q 390 915 450 931 q 343 899 365 908 q 303 874 321 889 q 269 828 281 854 q 258 774 258 801 q 267 718 257 746 q 297 668 276 690 q 324 649 307 657 q 361 633 342 640 q 399 622 381 626 q 433 615 418 618 q 481 590 460 611 l 689 385 l 893 589 q 920 608 904 601 q 953 614 936 614 l 1035 611 l 747 324 l 1022 49 m 606 303 l 431 475 q 397 488 415 489 q 283 454 329 481 q 214 358 236 428 q 225 222 194 286 q 299 144 251 167 q 407 118 346 122 q 431 126 419 118 l 606 303 z "},"'":{"ha":338,"x_min":69,"x_max":268,"o":"m 268 1042 l 268 843 q 215 728 261 772 q 153 692 189 703 q 71 679 117 682 l 71 722 q 83 756 71 742 q 114 774 94 771 q 153 792 139 778 q 169 843 167 807 l 142 843 q 90 864 111 843 q 69 915 69 885 l 69 947 q 97 1015 69 988 q 164 1042 124 1042 l 268 1042 z "},"(":{"ha":529,"x_min":69,"x_max":446,"o":"m 214 692 l 214 258 q 232 145 214 190 q 281 72 250 100 q 355 32 313 44 q 446 17 397 19 l 446 -33 q 426 -81 446 -61 q 378 -101 407 -101 q 264 -73 315 -94 q 174 -15 213 -51 q 69 258 69 83 l 69 692 q 174 964 69 865 q 290 1032 222 1011 q 446 1056 358 1053 l 446 994 q 431 951 446 969 q 392 926 415 932 q 385 925 386 926 q 316 902 347 918 q 262 858 285 886 q 226 790 239 831 q 214 692 214 749 z "},")":{"ha":515,"x_min":69,"x_max":446,"o":"m 301 692 q 289 790 301 749 q 253 858 276 831 q 199 902 231 886 q 131 925 168 918 q 124 926 129 926 q 85 951 100 932 q 69 994 69 969 l 69 1056 q 225 1032 157 1053 q 342 964 293 1011 q 446 692 446 865 l 446 258 q 342 -15 446 83 q 251 -73 303 -51 q 138 -101 200 -94 q 89 -81 108 -101 q 69 -33 69 -61 l 69 17 q 160 32 118 19 q 234 72 203 44 q 283 145 265 100 q 301 258 301 190 l 301 692 l 301 692 z "},"*":{"ha":738,"x_min":69,"x_max":668,"o":"m 581 581 q 607 515 607 553 q 581 450 607 478 l 547 417 l 428 538 l 358 607 l 289 538 l 231 479 q 168 454 204 454 q 106 479 132 454 l 69 515 l 249 694 l 117 796 q 83 853 88 818 q 101 919 78 889 l 132 958 l 289 839 l 289 949 q 315 1015 289 989 q 381 1042 342 1042 l 428 1042 l 428 839 l 515 906 q 579 924 543 929 q 638 889 615 918 l 668 849 l 467 694 l 581 581 z "},"+":{"ha":756,"x_min":69,"x_max":686,"o":"m 686 507 l 686 431 l 450 431 l 450 264 q 430 215 450 235 q 382 194 410 194 l 307 194 l 307 431 l 139 431 q 90 451 110 431 q 69 500 69 472 l 69 575 l 307 575 l 307 743 q 327 791 307 771 q 375 811 347 811 l 450 811 l 450 575 l 618 575 q 666 555 646 575 q 686 507 686 535 z "},",":{"ha":338,"x_min":69,"x_max":268,"o":"m 268 199 l 268 0 q 215 -115 261 -71 q 153 -151 189 -140 q 71 -164 117 -161 l 71 -121 q 83 -87 71 -101 q 114 -69 94 -72 q 153 -51 139 -65 q 169 0 167 -36 l 142 0 q 90 21 111 0 q 69 72 69 42 l 69 104 q 97 172 69 144 q 164 199 124 199 l 268 199 z "},"-":{"ha":497,"x_min":49,"x_max":449,"o":"m 449 564 l 449 481 q 424 434 449 454 q 367 414 399 414 l 49 414 l 49 499 q 72 545 49 526 q 131 564 94 564 l 449 564 z "},".":{"ha":283,"x_min":69,"x_max":214,"o":"m 214 144 l 214 68 q 194 20 214 40 q 146 0 174 0 l 69 0 l 69 76 q 90 124 69 104 q 138 144 110 144 l 214 144 z "},"/":{"ha":689,"x_min":69,"x_max":619,"o":"m 619 1042 l 238 -71 l 236 -72 q 212 -103 229 -92 q 172 -115 194 -115 l 69 -115 l 451 997 q 476 1029 458 1017 q 515 1042 493 1042 l 619 1042 z "},";":{"ha":283,"x_min":69,"x_max":214,"o":"m 214 144 l 214 0 q 175 -83 207 -53 q 130 -109 156 -101 q 71 -118 104 -117 l 71 -87 q 79 -62 71 -72 q 101 -50 88 -53 q 130 -37 121 -47 q 142 0 139 -26 l 122 0 q 85 15 100 0 q 69 53 69 31 l 69 76 q 90 124 69 104 q 138 144 110 144 l 214 144 m 214 694 l 214 619 q 194 571 214 592 q 146 550 174 550 l 69 550 l 69 626 q 90 674 69 654 q 138 694 110 694 l 214 694 z "},"<":{"ha":586,"x_min":69,"x_max":517,"o":"m 517 674 l 183 465 l 488 278 l 492 275 q 517 222 517 254 l 517 75 l 69 369 l 69 525 q 97 581 69 560 l 517 854 l 517 674 z "},">":{"ha":586,"x_min":69,"x_max":517,"o":"m 69 854 l 489 581 q 517 525 517 560 l 517 369 l 69 75 l 69 222 q 94 275 69 254 l 99 278 l 403 465 l 69 674 l 69 854 z "},"=":{"ha":961,"x_min":69,"x_max":892,"o":"m 892 628 l 892 565 q 868 507 892 531 q 810 483 844 483 l 69 483 l 69 544 q 94 603 69 579 q 153 628 118 628 l 892 628 m 892 353 l 892 290 q 868 232 892 256 q 810 208 844 208 l 69 208 l 69 269 q 94 328 69 304 q 153 353 118 353 l 892 353 z "},"?":{"ha":757,"x_min":68,"x_max":694,"o":"m 282 74 q 301 121 282 101 q 349 140 321 140 l 421 140 l 421 67 q 402 19 421 39 q 356 0 383 0 l 282 0 l 282 74 m 681 814 q 675 688 694 736 q 626 613 656 639 q 543 568 592 581 q 488 543 511 558 q 451 503 465 528 q 428 442 436 478 q 421 356 421 406 l 421 275 q 402 228 421 247 q 356 210 383 210 l 283 210 l 283 356 q 288 458 282 411 q 314 546 294 506 l 314 547 q 315 549 314 549 q 315 550 315 549 q 360 613 332 586 l 368 621 q 406 647 386 636 q 442 666 425 658 q 473 678 460 674 q 492 686 486 683 l 493 686 q 534 724 519 699 q 549 778 549 750 q 547 790 547 785 q 544 803 547 796 q 542 813 544 807 q 540 818 540 815 q 501 878 529 850 q 424 917 472 906 l 422 917 q 374 921 394 922 q 339 917 354 919 l 336 917 q 238 853 275 901 q 197 711 200 806 l 136 711 q 101 721 118 711 q 76 751 83 732 q 72 790 68 771 q 160 958 93 892 q 218 1001 186 985 q 289 1029 250 1018 q 379 1043 338 1043 q 469 1029 421 1043 q 540 1001 508 1018 q 599 958 572 985 q 650 894 628 929 q 681 814 672 858 z "},"@":{"ha":825,"x_min":69,"x_max":756,"o":"m 628 83 q 542 119 578 85 q 507 204 507 154 l 507 383 q 499 405 507 396 q 478 414 490 414 l 431 414 q 342 381 369 410 q 315 293 315 351 l 315 285 q 342 196 315 225 q 432 164 369 167 l 440 164 q 472 151 458 164 q 485 119 485 139 l 485 83 l 431 83 q 281 133 328 88 q 224 285 222 190 l 224 293 q 281 443 222 386 q 431 493 331 492 l 496 493 q 569 463 539 493 q 600 389 600 433 l 600 214 q 610 189 600 199 q 635 179 619 179 l 656 179 l 656 549 q 637 594 656 575 q 592 614 618 614 l 354 613 l 347 613 q 168 408 168 594 l 168 168 q 350 -36 168 -19 l 706 -36 l 706 -53 q 688 -99 706 -81 q 643 -117 669 -117 l 350 -117 q 150 -46 217 -111 q 69 168 69 31 l 69 408 q 150 622 69 546 q 233 673 185 656 q 349 694 282 690 l 617 694 q 671 683 646 694 q 715 653 696 672 q 744 610 733 635 q 756 556 756 585 l 756 147 q 737 101 756 119 q 692 83 718 83 l 628 83 z "},"–":{"ha":504,"x_min":49,"x_max":449,"o":"m 449 564 l 449 481 q 424 434 449 454 q 367 414 399 414 l 49 414 l 49 499 q 72 545 49 526 q 131 564 94 564 l 449 564 z "},"[":{"ha":489,"x_min":69,"x_max":419,"o":"m 204 851 l 204 88 q 222 38 204 58 q 267 18 240 18 l 419 18 l 419 -35 q 401 -83 419 -62 q 356 -103 382 -103 l 238 -103 q 172 -89 203 -103 q 119 -50 142 -75 q 83 8 96 -25 q 69 78 69 40 l 69 860 q 83 931 69 897 q 119 988 96 964 q 172 1027 142 1013 q 238 1042 203 1042 l 419 1042 l 419 985 q 400 938 418 957 q 356 919 382 919 l 267 919 q 222 899 240 919 q 204 851 204 879 z "},"|":{"ha":283,"x_min":69,"x_max":214,"o":"m 214 1042 l 214 68 q 194 20 214 40 q 146 0 174 0 l 69 0 l 69 974 q 90 1022 69 1001 q 138 1042 110 1042 l 214 1042 z "},"~":{"ha":885,"x_min":69,"x_max":815,"o":"m 815 564 l 815 433 q 815 428 815 432 q 814 422 814 424 q 782 372 810 389 q 722 349 754 356 q 660 342 689 342 q 622 342 631 342 l 265 369 q 144 347 190 369 q 69 289 97 325 l 69 419 q 70 425 69 421 q 71 431 71 429 q 103 481 75 464 q 163 504 131 497 q 225 511 196 511 q 263 511 254 511 l 619 483 q 741 505 694 483 q 815 564 788 526 z "},"‘":{"ha":338,"x_min":69,"x_max":268,"o":"m 174 1042 q 241 1015 214 1042 q 268 947 268 988 l 268 915 q 247 864 268 885 q 196 843 226 843 l 168 843 q 185 792 171 807 q 224 774 199 778 q 255 756 243 771 q 267 722 267 742 l 267 679 q 185 692 221 682 q 122 728 149 703 q 69 843 76 772 l 69 1042 l 174 1042 z "},"`":{"ha":338,"x_min":69,"x_max":268,"o":"m 174 1042 q 241 1015 214 1042 q 268 947 268 988 l 268 915 q 247 864 268 885 q 196 843 226 843 l 168 843 q 185 792 171 807 q 224 774 199 778 q 255 756 243 771 q 267 722 267 742 l 267 679 q 185 692 221 682 q 122 728 149 703 q 69 843 76 772 l 69 1042 l 174 1042 z "},"]":{"ha":489,"x_min":69,"x_max":419,"o":"m 285 88 l 285 851 q 267 901 285 881 q 222 921 249 921 l 69 921 l 69 974 q 88 1022 69 1001 q 133 1042 107 1042 l 251 1042 q 317 1028 286 1042 q 370 989 347 1014 q 406 931 393 964 q 419 861 419 899 l 419 79 q 406 8 419 42 q 370 -49 393 -25 q 317 -88 347 -74 q 251 -103 286 -103 l 69 -103 l 69 -46 q 89 1 71 -18 q 133 19 107 19 l 222 19 q 267 40 249 19 q 285 88 285 60 z "},"\\":{"ha":689,"x_min":69,"x_max":619,"o":"m 174 1042 q 213 1029 196 1042 q 238 997 231 1017 l 619 -115 l 517 -115 q 477 -103 494 -115 q 453 -72 460 -92 l 451 -71 l 69 1042 l 174 1042 z "},"{":{"ha":603,"x_min":69,"x_max":533,"o":"m 133 532 q 172 547 156 532 q 189 586 188 563 l 189 743 l 189 751 q 196 818 190 788 q 213 876 201 849 q 275 967 233 929 q 371 1022 315 1006 q 499 1042 426 1039 l 533 1042 l 533 1006 q 519 964 533 982 q 482 940 504 946 q 474 940 478 940 q 465 939 469 939 q 403 922 432 935 q 352 887 374 910 q 319 829 331 864 q 307 744 307 794 l 307 581 q 294 518 307 547 q 257 469 281 489 q 294 419 281 449 q 307 357 307 390 l 307 194 q 322 102 307 139 q 363 42 336 65 q 424 9 389 19 q 499 -3 458 -1 l 533 -3 l 533 -35 q 513 -83 533 -62 q 465 -103 493 -103 q 358 -80 406 -97 q 275 -29 311 -62 q 213 61 232 11 q 196 120 201 89 q 189 186 190 151 l 189 196 l 189 353 q 172 390 188 375 q 133 406 156 406 l 138 406 q 90 426 110 406 q 69 474 69 446 l 69 532 l 133 532 z "},"}":{"ha":603,"x_min":69,"x_max":533,"o":"m 533 532 l 533 474 q 513 426 533 446 q 465 406 493 406 l 469 406 q 431 390 447 406 q 414 353 415 375 l 414 196 l 414 186 q 407 120 413 151 q 390 61 401 89 q 328 -29 371 11 q 244 -80 292 -62 q 138 -103 197 -97 q 90 -83 110 -103 q 69 -35 69 -62 l 69 -3 l 104 -3 q 179 9 144 -1 q 240 42 214 19 q 281 102 267 65 q 296 194 296 139 l 296 357 q 309 419 296 390 q 346 469 322 449 q 309 518 322 489 q 296 581 296 547 l 296 744 q 284 829 296 794 q 251 887 272 864 q 200 922 229 910 q 138 939 171 935 q 129 940 133 939 q 121 940 125 940 q 84 964 99 946 q 69 1006 69 982 l 69 1042 l 104 1042 q 232 1022 176 1039 q 328 967 288 1006 q 390 876 369 929 q 407 818 401 849 q 414 751 413 788 l 414 743 l 414 586 q 431 547 415 563 q 469 532 447 532 l 533 532 z "},"_":{"ha":947,"x_min":42,"x_max":906,"o":"m 906 -103 l 906 -165 q 882 -224 906 -200 q 824 -247 858 -247 l 42 -247 l 42 -186 q 66 -127 42 -151 q 125 -103 90 -103 l 906 -103 z "},"^":{"ha":893,"x_min":69,"x_max":826,"o":"m 810 733 l 689 733 l 457 967 l 240 750 q 200 733 221 733 l 69 733 l 379 1043 l 533 1043 l 819 758 q 823 742 826 751 q 810 733 819 733 z "},"D":{"ha":832,"x_min":4,"x_max":790,"o":"m 690 954 q 790 693 790 860 l 790 338 q 690 76 790 172 q 578 17 643 32 q 429 0 513 1 l 4 0 q 51 19 32 0 q 69 65 69 38 l 69 868 q 83 935 69 904 q 121 990 97 967 q 176 1028 144 1014 q 243 1042 207 1042 l 431 1042 q 578 1019 514 1039 q 690 954 643 999 m 653 693 q 635 801 653 758 q 588 872 618 844 q 517 910 557 899 q 429 925 476 922 l 274 925 q 227 906 246 925 q 208 858 208 886 l 208 182 q 224 138 208 157 q 264 117 240 119 l 274 117 l 429 117 q 517 128 476 118 q 588 164 557 139 q 635 231 618 189 q 653 338 653 272 l 653 693 z "},"”":{"ha":636,"x_min":69,"x_max":567,"o":"m 268 1042 l 268 843 q 214 728 260 769 q 153 692 189 703 q 71 679 117 682 l 71 722 q 83 756 71 742 q 114 774 94 771 q 152 792 139 778 q 169 843 165 807 l 142 843 q 90 864 111 843 q 69 915 69 885 l 69 947 q 97 1015 69 988 q 164 1042 124 1042 l 268 1042 m 567 1042 l 567 843 q 514 728 560 772 q 451 692 488 703 q 369 679 415 682 l 369 722 q 381 756 369 742 q 413 774 393 771 q 451 792 438 778 q 468 843 465 807 l 440 843 q 389 864 410 843 q 368 915 368 885 l 368 947 q 395 1015 368 988 q 463 1042 422 1042 l 567 1042 z "},"“":{"ha":636,"x_min":69,"x_max":567,"o":"m 472 1042 q 540 1015 513 1042 q 567 947 567 988 l 567 915 q 546 864 567 885 q 494 843 525 843 l 467 843 q 484 792 471 807 q 522 774 497 778 q 553 756 542 771 q 565 722 565 742 l 565 679 q 483 692 519 682 q 422 728 447 703 q 368 843 376 769 l 368 1042 l 472 1042 m 174 1042 q 241 1015 214 1042 q 268 947 268 988 l 268 915 q 247 864 268 885 q 196 843 226 843 l 168 843 q 185 792 171 807 q 224 774 199 778 q 255 756 243 771 q 267 722 267 742 l 267 679 q 185 692 221 682 q 122 728 149 703 q 69 843 76 772 l 69 1042 l 174 1042 z "},"’":{"ha":338,"x_min":69,"x_max":268,"o":"m 268 1042 l 268 843 q 215 728 261 772 q 153 692 189 703 q 71 679 117 682 l 71 722 q 83 756 71 742 q 114 774 94 771 q 153 792 139 778 q 169 843 167 807 l 142 843 q 90 864 111 843 q 69 915 69 885 l 69 947 q 97 1015 69 988 q 164 1042 124 1042 l 268 1042 z "}}}
